<svg xmlns="http://www.w3.org/2000/svg" width="1184" height="238" viewBox="0 0 1184 238" role="img" aria-label="claude-statusline example output">
  <rect width="1184" height="238" rx="10" fill="#1e1e2e"/>
  <rect width="1184" height="30" rx="10" fill="#181825"/>
  <rect y="24" width="1184" height="6" fill="#181825"/>
  <circle cx="18" cy="15" r="5.5" fill="#f38ba8"/><circle cx="36" cy="15" r="5.5" fill="#f9e2af"/><circle cx="54" cy="15" r="5.5" fill="#a6e3a1"/>
  <text x="592" y="20" text-anchor="middle" font-family="'Cascadia Code','Fira Code',SFMono-Regular,Consolas,Menlo,monospace" font-size="12" fill="#9399b2">Claude Code</text>
  <rect x="10" y="160" width="1164" height="28" rx="6" fill="none" stroke="#45475a" stroke-width="1"/>
  <text x="20" y="57" font-family="'Cascadia Code','Fira Code',SFMono-Regular,Consolas,Menlo,monospace" font-size="13" xml:space="preserve" fill="#9399b2"><tspan x="20.00 27.85 35.70 43.55 51.40 59.25 67.10 74.95 82.80 90.65 98.50 106.35 114.20 122.05 129.90 137.75 145.60 153.45 161.30 169.15 177.00 184.85 192.70 200.55 208.40 216.25 224.10 231.95 239.80 247.65 255.50 263.35 271.20 279.05 286.90 294.75 302.60 310.45">&gt; how much of my weekly limit is left?</tspan></text>
  <text x="20" y="97" font-family="'Cascadia Code','Fira Code',SFMono-Regular,Consolas,Menlo,monospace" font-size="13" xml:space="preserve" fill="#cdd6f4"><tspan x="20.00 27.85 35.70 43.55 51.40 59.25 67.10 74.95 82.80 90.65 98.50 106.35 114.20 122.05 129.90 137.75 145.60 153.45 161.30 169.15 177.00 184.85 192.70 200.55 208.40 216.25 224.10 231.95 239.80 247.65 255.50 263.35 271.20 279.05 286.90 294.75 302.60 310.45 318.30 326.15 334.00 341.85 349.70 357.55 365.40 373.25 381.10 388.95 396.80 404.65 412.50 420.35 428.20 436.05 443.90 451.75 459.60 467.45 475.30 483.15 491.00 498.85 506.70 514.55 522.40 530.25 538.10 545.95 553.80 561.65 569.50 577.35 585.20">⏺ Look down — the status line has it: 34% of the 7-day window, 76% of the</tspan></text>
  <text x="20" y="117" font-family="'Cascadia Code','Fira Code',SFMono-Regular,Consolas,Menlo,monospace" font-size="13" xml:space="preserve" fill="#cdd6f4"><tspan x="20.00 27.85 35.70 43.55 51.40 59.25 67.10 74.95 82.80 90.65 98.50 106.35 114.20 122.05 129.90 137.75 145.60 153.45 161.30 169.15 177.00 184.85 192.70 200.55 208.40 216.25 224.10 231.95 239.80 247.65 255.50 263.35 271.20 279.05 286.90 294.75 302.60 310.45 318.30 326.15 334.00 341.85 349.70 357.55 365.40 373.25 381.10 388.95 396.80 404.65 412.50 420.35 428.20 436.05 443.90 451.75 459.60 467.45 475.30 483.15 491.00 498.85 506.70 514.55 522.40 530.25 538.10 545.95 553.80 561.65 569.50 577.35 585.20">  Opus slice, and the 5h session at 49%, resetting in 1h8m. Those numbers</tspan></text>
  <text x="20" y="137" font-family="'Cascadia Code','Fira Code',SFMono-Regular,Consolas,Menlo,monospace" font-size="13" xml:space="preserve" fill="#cdd6f4"><tspan x="20.00 27.85 35.70 43.55 51.40 59.25 67.10 74.95 82.80 90.65 98.50 106.35 114.20 122.05 129.90 137.75 145.60 153.45 161.30 169.15 177.00 184.85 192.70 200.55 208.40 216.25 224.10 231.95 239.80 247.65 255.50 263.35 271.20 279.05 286.90 294.75 302.60 310.45 318.30 326.15 334.00 341.85 349.70 357.55 365.40 373.25 381.10 388.95 396.80 404.65 412.50 420.35 428.20 436.05 443.90 451.75 459.60 467.45 475.30 483.15 491.00 498.85 506.70 514.55 522.40 530.25 538.10 545.95 553.80 561.65 569.50 577.35 585.20 593.05">  are Anthropic's own, for the whole account — not this box's transcripts.</tspan></text>
  <text x="20" y="177" font-family="'Cascadia Code','Fira Code',SFMono-Regular,Consolas,Menlo,monospace" font-size="13" xml:space="preserve" fill="#cdd6f4"><tspan x="20.00" fill="#9399b2">&gt;</tspan><tspan x=""></tspan></text>
  <text x="20" y="217" font-family="'Cascadia Code','Fira Code',SFMono-Regular,Consolas,Menlo,monospace" font-size="13" xml:space="preserve" fill="#cdd6f4"><tspan x="20.00 27.85 35.70 43.55 51.40 59.25 67.10 74.95 82.80 90.65" fill="#c7c400">~/code/app</tspan><tspan x="98.50 106.35"> [</tspan><tspan x="114.20 122.05 129.90 137.75" fill="#6871ff">main</tspan><tspan x="145.60 153.45" fill="#b43c2a"> *</tspan><tspan x="161.30" fill="#00c200">]</tspan><tspan x="169.15 177.00 184.85 192.70 200.55 208.40 216.25 224.10 231.95 239.80 247.65 255.50 263.35 271.20 279.05 286.90 294.75 302.60 310.45 318.30 326.15 334.00"> | Opus 5 | ctx:42% | </tspan><tspan x="341.85 349.70">#7</tspan><tspan x="357.55 365.40 373.25"> | </tspan><tspan x="381.10 388.95 396.80 404.65 412.50 420.35 428.20 436.05 443.90 451.75 459.60 467.45 475.30 483.15 491.00 498.85 506.70 514.55 522.40 530.25" fill="#9399b2">Personal (Max 5x) · </tspan><tspan x="538.10 545.95 553.80 561.65 569.50 577.35 585.20 593.05 600.90 608.75 616.60 624.45 632.30 640.15 648.00 655.85 663.70" fill="#00c200">7d▕███▍░░░░░░▏34%</tspan><tspan x="671.55"> </tspan><tspan x="679.40 687.25 695.10 702.95 710.80" fill="#9399b2">3d20h</tspan><tspan x="718.65 726.50 734.35" fill="#9399b2"> · </tspan><tspan x="742.20 750.05 757.90 765.75 773.60 781.45 789.30 797.15 805.00 812.85 820.70 828.55 836.40 844.25 852.10 859.95 867.80 875.65 883.50" fill="#c7c400">Opus▕███████▌░░▏76%</tspan><tspan x="891.35"> </tspan><tspan x="899.20 907.05 914.90 922.75 930.60" fill="#9399b2">3d20h</tspan><tspan x="938.45 946.30 954.15" fill="#9399b2"> · </tspan><tspan x="962.00 969.85 977.70 985.55 993.40 1001.25 1009.10 1016.95 1024.80 1032.65 1040.50 1048.35 1056.20 1064.05 1071.90 1079.75 1087.60" fill="#00c200">5h▕████▉░░░░░▏49%</tspan><tspan x="1095.45"> </tspan><tspan x="1103.30 1111.15 1119.00 1126.85" fill="#9399b2">1h8m</tspan></text>
</svg>
